Coordinates
version=1
nRows=8
nColumns=40
inDegrees=yes

Units are S.I. units (second, meters, Newtons, ...)
If the header above contains a line with 'inDegrees', this indicates whether rotational values are in degrees (yes) or radians (no).

endheader
time	pelvis_tilt	pelvis_list	pelvis_rotation	pelvis_tx	pelvis_ty	pelvis_tz	hip_flexion_r	hip_adduction_r	hip_rotation_r	knee_angle_r	knee_angle_r_beta	ankle_angle_r	subtalar_angle_r	mtp_angle_r	hip_flexion_l	hip_adduction_l	hip_rotation_l	knee_angle_l	knee_angle_l_beta	ankle_angle_l	subtalar_angle_l	mtp_angle_l	lumbar_extension	lumbar_bending	lumbar_rotation	arm_flex_r	arm_add_r	arm_rot_r	elbow_flex_r	pro_sup_r	wrist_flex_r	wrist_dev_r	arm_flex_l	arm_add_l	arm_rot_l	elbow_flex_l	pro_sup_l	wrist_flex_l	wrist_dev_l
      0.00000000	      6.05415394	      5.79234705	      5.38305187	     -0.34383960	      1.05902478	      0.04240374	     32.72324047	    -15.35956868	     -8.32000767	     40.93983276	      0.71453488	    -14.50086297	     -8.94983055	      0.00000000	     66.94065214	     -5.18934064	      4.78814969	    113.97502983	      1.98923954	     -7.52859688	      8.09145939	      0.00000000	    -70.69153747	     -1.23407540	     -5.06933244	     84.65735668	     -7.30424879	     -1.09366899	     46.16811407	     88.70855087	      0.00000000	      0.00000000	     89.68344502	     -4.12835092	      9.89419460	     42.12187227	     84.30561959	      0.00000000	      0.00000000
      0.00833333	      5.75669160	      6.37406439	      5.11788845	     -0.34360532	      1.05916910	      0.04282794	     30.99240268	    -15.64635090	     -8.63579522	     39.01259185	      0.68089818	    -16.15759477	     -8.79726166	      0.00000000	     69.28059937	     -5.19824426	      4.17769278	    115.36607335	      2.01351783	     -6.25968665	      8.30584432	      0.00000000	    -70.52981046	     -2.02628783	     -5.48153400	     84.35432380	     -7.55527210	     -1.41342634	     46.42075878	     88.62432794	      0.00000000	      0.00000000	     89.68502309	     -3.87514211	      9.98667808	     42.17303454	     84.71453168	      0.00000000	      0.00000000
      0.01666667	      5.55836331	      6.88535352	      4.79987900	     -0.34325592	      1.05967854	      0.04305335	     29.38243301	    -15.96847977	     -9.04043241	     37.40052420	      0.65276229	    -17.69302356	     -8.61431075	      0.00000000	     71.40747046	     -5.46154943	      3.48432291	    116.37857735	      2.03118935	     -5.57029065	      8.45816663	      0.00000000	    -70.48011401	     -2.76503755	     -5.81396912	     84.16120668	     -7.79234118	     -1.59221354	     46.56413551	     88.61639594	      0.00000000	      0.00000000	     89.69016166	     -3.65474859	     10.01999764	     42.20297146	     84.87959531	      0.00000000	      0.00000000
      0.02500000	      5.36853599	      7.31187090	      4.57004106	     -0.34298658	      1.06037593	      0.04322038	     27.95332369	    -16.24104497	     -9.30177218	     36.38673553	      0.63506834	    -18.44730787	     -8.62004874	      0.00000000	     73.41122376	     -5.61250181	      2.81554244	    116.83033447	      2.03907400	     -4.73100381	      8.41371419	      0.00000000	    -70.44557771	     -3.36848782	     -6.16399392	     84.05777643	     -7.94555628	     -1.65662022	     46.60850174	     88.62382220	      0.00000000	      0.00000000	     89.70861503	     -3.48957563	      9.99652983	     42.17841839	     84.92705951	      0.00000000	      0.00000000
      0.03333333	      5.20653516	      7.76207393	      4.45505896	     -0.34271516	      1.06155296	      0.04285827	     26.55699667	    -16.57325490	     -9.33509536	     35.52822681	      0.62008454	    -19.63410717	     -8.61313237	      0.00000000	     75.21355757	     -5.48320682	      2.12957540	    116.92304601	      2.04069212	     -3.98673472	      8.34518412	      0.00000000	    -70.50334811	     -3.80440661	     -6.55012093	     84.01169314	     -8.06631423	     -1.83607575	     46.68796495	     88.60688776	      0.00000000	      0.00000000	     89.72374252	     -3.23902708	      9.59288330	     42.32507618	     85.07632211	      0.00000000	      0.00000000
      0.04166667	      4.86610003	      7.85676282	      4.33113834	     -0.34305017	      1.06267440	      0.04291080	     25.55529917	    -16.57613934	     -9.45091716	     35.06378362	      0.61197847	    -20.09916230	     -8.47664948	      0.00000000	     77.17235066	     -5.54417620	      1.66108445	    116.65425880	      2.03600090	     -3.75073649	      7.74139101	      0.00000000	    -70.35555954	     -4.12417672	     -6.63024553	     83.99768458	     -8.16513798	     -1.88830940	     46.70751530	     88.59867053	      0.00000000	      0.00000000	     89.73657884	     -3.10827632	      9.52498719	     42.45698240	     85.27841049	      0.00000000	      0.00000000
      0.05000000	      4.86919331	      7.82587350	      4.22668798	     -0.34291359	      1.06386831	      0.04259336	     24.56179985	    -16.52625024	     -9.36378258	     35.42053749	      0.61820500	    -20.10198133	     -8.48878694	      0.00000000	     78.48700513	     -5.62546310	      1.24205767	    116.08621582	      2.02608668	     -3.61808455	      7.69589487	      0.00000000	    -70.48269781	     -4.25048741	     -6.59821270	     84.02748294	     -8.25644556	     -1.91739547	     46.74958329	     88.45708415	      0.00000000	      0.00000000	     89.75494133	     -3.07180131	      9.46949383	     42.60110691	     85.13256099	      0.00000000	      0.00000000
      0.05833333	      4.77413138	      7.72398505	      4.24231096	     -0.34311350	      1.06531235	      0.04233380	     23.80187938	    -16.41428903	     -9.19379738	     35.97985402	      0.62796692	    -20.08553867	     -8.52539102	      0.00000000	     79.65507788	     -5.61269247	      0.96848291	    114.86977193	      2.00485573	     -3.28031147	      7.44550121	      0.00000000	    -70.54963931	     -4.25067927	     -6.52800222	     84.08220515	     -8.33209040	     -1.94552799	     46.75912227	     88.34910727	      0.00000000	      0.00000000	     89.78175108	     -2.99251697	      9.40560248	     42.71549893	     85.02976718	      0.00000000	      0.00000000
